<svg width="24" height="24" viewBox="0 0 24 24" fill="none" xmlns="http://www.w3.org/2000/svg">
<path d="M12.4293 0.96875C6.10211 0.96875 0.96875 6.10211 0.96875 12.4293C0.96875 18.7565 6.10211 23.8898 12.4293 23.8898C18.7565 23.8898 23.8898 18.7565 23.8898 12.4293C23.8898 6.10211 18.7565 0.96875 12.4293 0.96875ZM18.3267 9.65966L11.5936 16.4166C11.3788 16.6314 11.0683 16.7747 10.7579 16.7747C10.4474 16.7747 10.1371 16.6553 9.92212 16.4166L6.53188 13.0262C6.0544 12.5487 6.0544 11.8085 6.53188 11.3309C7.00936 10.8534 7.74952 10.8534 8.22717 11.3309L10.758 13.8617L16.6554 7.96432C17.1329 7.48684 17.873 7.48684 18.3507 7.96432C18.8042 8.44197 18.8042 9.18209 18.3267 9.65961L18.3267 9.65966Z" fill="white"/>
</svg>
